<svg width="20" height="20" viewBox="0 0 20 20" fill="none" xmlns="http://www.w3.org/2000/svg">
<mask id="mask0_537_16000" style="mask-type:alpha" maskUnits="userSpaceOnUse" x="0" y="0" width="20" height="20">
<rect width="20" height="20" fill="#D9D9D9"/>
</mask>
<g mask="url(#mask0_537_16000)">
<path d="M4.16602 7.3398H15.8327V5.25647C15.8327 5.1923 15.8059 5.13355 15.7525 5.08022C15.6991 5.02675 15.6404 5.00001 15.5762 5.00001H4.42247C4.35831 5.00001 4.29956 5.02675 4.24622 5.08022C4.19275 5.13355 4.16602 5.1923 4.16602 5.25647V7.3398ZM4.42247 17.9167C4.0015 17.9167 3.64518 17.7708 3.35352 17.4792C3.06185 17.1875 2.91602 16.8312 2.91602 16.4102V5.25647C2.91602 4.8355 3.06185 4.47918 3.35352 4.18751C3.64518 3.89585 4.0015 3.75001 4.42247 3.75001H5.57622V2.62814C5.57622 2.4455 5.6374 2.293 5.75977 2.17064C5.88213 2.04842 6.03463 1.9873 6.21727 1.9873C6.40004 1.9873 6.55254 2.04842 6.67477 2.17064C6.79713 2.293 6.85831 2.4455 6.85831 2.62814V3.75001H13.1725V2.6123C13.1725 2.43494 13.2323 2.2864 13.3518 2.16668C13.4716 2.0471 13.6201 1.9873 13.7975 1.9873C13.9748 1.9873 14.1233 2.0471 14.2429 2.16668C14.3626 2.2864 14.4225 2.43494 14.4225 2.6123V3.75001H15.5762C15.9972 3.75001 16.3535 3.89585 16.6452 4.18751C16.9369 4.47918 17.0827 4.8355 17.0827 5.25647V9.18439C17.0827 9.36175 17.0228 9.51022 16.9031 9.62981C16.7835 9.74953 16.635 9.80939 16.4577 9.80939C16.2803 9.80939 16.1318 9.74953 16.0123 9.62981C15.8925 9.51022 15.8327 9.36175 15.8327 9.18439V8.5898H4.16602V16.4102C4.16602 16.4744 4.19275 16.5331 4.24622 16.5865C4.29956 16.6399 4.35831 16.6667 4.42247 16.6667H9.52018C9.69754 16.6667 9.84609 16.7265 9.96581 16.8463C10.0854 16.9658 10.1452 17.1143 10.1452 17.2917C10.1452 17.469 10.0854 17.6175 9.96581 17.7371C9.84609 17.8568 9.69754 17.9167 9.52018 17.9167H4.42247ZM15.1596 18.75C14.119 18.75 13.2339 18.3852 12.5041 17.6554C11.7744 16.9257 11.4096 16.0406 11.4096 15C11.4096 13.9595 11.7744 13.0743 12.5041 12.3446C13.2339 11.6149 14.119 11.25 15.1596 11.25C16.2003 11.25 17.0854 11.6149 17.815 12.3446C18.5447 13.0743 18.9096 13.9595 18.9096 15C18.9096 16.0406 18.5447 16.9257 17.815 17.6554C17.0854 18.3852 16.2003 18.75 15.1596 18.75ZM15.5283 14.8494V12.9167C15.5283 12.8163 15.4919 12.7297 15.4191 12.6571C15.3465 12.5845 15.26 12.5481 15.1596 12.5481C15.0591 12.5481 14.9726 12.5845 14.9 12.6571C14.8273 12.7297 14.791 12.8163 14.791 12.9167V14.8365C14.791 14.9369 14.8092 15.0325 14.8456 15.1233C14.8818 15.2142 14.939 15.2986 15.0171 15.3767L16.2879 16.6475C16.3605 16.7202 16.4457 16.7578 16.5435 16.7604C16.6412 16.7631 16.729 16.7254 16.8071 16.6475C16.8851 16.5695 16.9241 16.4829 16.9241 16.3879C16.9241 16.2928 16.8851 16.2062 16.8071 16.1281L15.5283 14.8494Z" fill="#FF6640"/>
</g>
</svg>
